<svg width="32" height="32" viewBox="0 0 32 32" fill="none" xmlns="http://www.w3.org/2000/svg">
<mask id="mask0_183_235" style="mask-type:alpha" maskUnits="userSpaceOnUse" x="0" y="0" width="32" height="32">
<rect width="32" height="32" fill="#D9D9D9"/>
</mask>
<g mask="url(#mask0_183_235)">
</g>
<g clip-path="url(#clip0_183_235)">
<path d="M26.5602 16.2513C26.5602 15.4718 26.4884 14.7231 26.3551 14.0051H15.9961V18.2615H21.9243C21.6679 19.6359 20.8987 20.8051 19.7294 21.5846V24.3436H23.2884C25.3602 22.4256 26.5602 19.6051 26.5602 16.2513Z" fill="#4285F4"/>
<path d="M16.0053 27C18.9797 27 21.4617 26.0154 23.2874 24.3333L19.7284 21.5744C18.7438 22.241 17.4823 22.6308 16.0053 22.6308C13.1438 22.6308 10.713 20.6923 9.85148 18.0974H6.17969V20.9487C7.98482 24.5385 11.6976 27 16.0053 27Z" fill="#34A853"/>
<path d="M9.84103 18.0974C9.62564 17.441 9.49231 16.7333 9.49231 16.0051C9.49231 15.2769 9.61538 14.5795 9.84103 13.9128V11.0615H6.16923C5.42051 12.5487 5 14.2308 5 16.0051C5 17.7795 5.42051 19.4615 6.16923 20.9487L9.84103 18.0974Z" fill="#FBBC05"/>
<path d="M16.0039 9.37949C17.6141 9.37949 19.0705 9.93333 20.209 11.0205L23.368 7.86154C21.4603 6.08718 18.968 5 16.0039 5C11.7064 5 7.98335 7.46154 6.16797 11.0615L9.83976 13.9128C10.7116 11.3077 13.1321 9.37949 16.0039 9.37949Z" fill="#EA4335"/>
</g>
<defs>
<clipPath id="clip0_183_235">
<rect width="22" height="22" fill="white" transform="translate(5 5)"/>
</clipPath>
</defs>
</svg>
